<svg width="132" height="36" viewBox="0 0 132 36" fill="none" xmlns="http://www.w3.org/2000/svg">
<path d="M15.8004 28.6725V16.4121H21.1329V27.0393C21.1329 29.1567 22.4485 30.5693 24.4569 30.5693C26.6119 30.5693 28.0739 29.1195 28.0739 26.9648V16.4121H33.4064V28.598C33.4064 29.5636 33.9529 30.1223 34.905 30.1223H35.2713V35.36H33.7726C31.2148 35.36 29.4993 34.5061 28.6965 32.7956C27.2345 34.764 25.1894 35.8041 22.6682 35.8041C18.5413 35.8041 15.8004 32.9818 15.8004 28.6696V28.6725Z" fill="#F9F3F1"/>
<path d="M90.4358 26.7327V16.4121H95.7683V28.598C95.7683 29.5636 96.3148 30.1223 97.2669 30.1223H97.6331V35.36H96.1345C93.2781 35.4173 92.1091 34.2483 91.771 33.8586C90.4414 32.3371 90.4414 29.724 90.4386 26.7327H90.4358Z" fill="#F9F3F1"/>
<path d="M36.6939 16.412H42.0264V18.1942C43.4151 16.7072 45.2039 15.9651 47.3223 15.9651C49.9167 15.9651 51.9618 17.1169 53.0942 19.0481C54.5928 17.0424 56.7112 15.9651 59.376 15.9651C63.4296 15.9651 66.1339 18.7501 66.1339 22.9878V28.5979C66.1339 29.5635 66.6832 30.1222 67.6325 30.1222H67.9987V35.3599H66.5001C62.7367 35.3599 60.8014 33.4659 60.8014 29.787V24.6238C60.8014 22.5809 59.5225 21.2056 57.5873 21.2056C55.5055 21.2056 54.0801 22.6181 54.0801 24.6983V35.3627H48.7476V24.6267C48.7476 22.5838 47.4687 21.2084 45.5335 21.2084C43.4518 21.2084 42.0264 22.621 42.0264 24.7012V35.3656H36.6939V16.4178V16.412Z" fill="#F9F3F1"/>
<path d="M69.1705 8.60995H74.503V18.3059C75.9284 16.8189 77.8637 15.965 80.1285 15.965C85.2779 15.965 89.1146 20.2371 89.1146 25.8845C89.1146 31.5319 85.2779 35.8039 80.1285 35.8039C77.8637 35.8039 75.9284 34.9501 74.503 33.463V35.357H69.1705V8.60709V8.60995ZM83.6356 25.8873C83.6356 23.2112 81.7004 21.2055 79.0693 21.2055C76.4383 21.2055 74.503 23.2112 74.503 25.8873C74.503 28.5635 76.4383 30.5691 79.0693 30.5691C81.7004 30.5691 83.6356 28.5635 83.6356 25.8873Z" fill="#F9F3F1"/>
<path d="M98.3571 25.8874C98.3571 20.24 102.667 15.9679 108.402 15.9679C114.138 15.9679 118.448 20.2027 118.448 25.9618C118.448 26.4461 118.411 27.1882 118.301 27.6351H104.056C104.639 29.7898 106.321 31.1651 108.549 31.1651C110.301 31.1651 111.763 30.3858 112.459 29.3829H118.158C116.769 33.2109 113.045 35.8097 108.442 35.8097C102.67 35.8097 98.3599 31.5376 98.3599 25.8902L98.3571 25.8874ZM104.092 24.0307H112.749C112.166 21.9505 110.521 20.6124 108.402 20.6124C106.284 20.6124 104.676 21.9505 104.092 24.0307Z" fill="#F9F3F1"/>
<path d="M95.7683 8.61285H90.4358V16.5066H95.7683V8.61285Z" fill="#F9F3F1"/>
<path d="M0 21.9621V27.1997H1.462C1.69299 27.1997 1.92117 27.194 2.15216 27.1825C2.90429 27.1453 3.6536 27.0421 4.38882 26.8731C4.75221 26.79 5.10996 26.6897 5.4649 26.5722V35.8069H11.1242V22.7443C11.7805 21.9764 12.2115 21.3059 12.4425 20.9363C12.6031 20.6813 13.0003 20.0338 13.4115 19.1427C13.7073 18.5037 13.9637 17.8447 14.1806 17.1714C14.4059 16.4723 14.5919 15.7617 14.7383 15.0425C14.8933 14.2918 15.0059 13.5325 15.0792 12.7675C15.1581 11.971 15.1947 11.1687 15.1947 10.3664C15.1947 3.75346 12.1636 0 7.59734 0C3.21415 0 0.329584 3.38098 0.329584 9.14011C0.329584 13.4494 1.93525 17.6499 4.67615 21.028C3.61697 21.6211 2.44794 21.9563 1.16904 21.9563H0V21.9621ZM9.7157 9.95957C9.7157 12.5985 9.20301 15.011 8.2537 16.9823C6.71845 14.6786 5.84238 11.9652 5.84238 9.14298C5.84238 6.61584 6.53535 5.24053 7.70438 5.24053C8.87342 5.24053 9.71288 6.72758 9.71288 9.95957H9.7157Z" fill="#F9F3F1"/>
<circle cx="126.837" cy="30.6468" r="5.16284" fill="#FFC53E"/>
</svg>
